<svg xmlns="http://www.w3.org/2000/svg" width="400" height="96" viewBox="0 0 400 96" fill="none">
  <!-- Base beam -->
  <rect x="0" y="78" width="400" height="6" fill="#0B0B0B"/>
  <rect x="0" y="86" width="400" height="4" fill="#0B0B0B" opacity="0.75"/>

  <!-- Primary chevron bundles (dense, hand-drawn) -->
  <g stroke="#0B0B0B" stroke-width="6" stroke-linecap="round" stroke-linejoin="round">
    <path d="M -20 76 L 0 18 L 20 76"/>
    <path d="M 20 76 L 40 18 L 60 76"/>
    <path d="M 60 76 L 80 18 L 100 76"/>
    <path d="M 100 76 L 120 18 L 140 76"/>
    <path d="M 140 76 L 160 18 L 180 76"/>
    <path d="M 180 76 L 200 18 L 220 76"/>
    <path d="M 220 76 L 240 18 L 260 76"/>
    <path d="M 260 76 L 280 18 L 300 76"/>
    <path d="M 300 76 L 320 18 L 340 76"/>
    <path d="M 340 76 L 360 18 L 380 76"/>
    <path d="M 380 76 L 400 18 L 420 76"/>
  </g>

  <!-- Inner slats for texture -->
  <g stroke="#0B0B0B" stroke-width="4" stroke-linecap="round" opacity="0.85">
    <path d="M -10 76 L 0 34 L 10 76"/>
    <path d="M 10 76 L 20 34 L 30 76"/>
    <path d="M 30 76 L 40 34 L 50 76"/>
    <path d="M 50 76 L 60 34 L 70 76"/>
    <path d="M 70 76 L 80 34 L 90 76"/>
    <path d="M 90 76 L 100 34 L 110 76"/>
    <path d="M 110 76 L 120 34 L 130 76"/>
    <path d="M 130 76 L 140 34 L 150 76"/>
    <path d="M 150 76 L 160 34 L 170 76"/>
    <path d="M 170 76 L 180 34 L 190 76"/>
    <path d="M 190 76 L 200 34 L 210 76"/>
    <path d="M 210 76 L 220 34 L 230 76"/>
    <path d="M 230 76 L 240 34 L 250 76"/>
    <path d="M 250 76 L 260 34 L 270 76"/>
    <path d="M 270 76 L 280 34 L 290 76"/>
    <path d="M 290 76 L 300 34 L 310 76"/>
    <path d="M 310 76 L 320 34 L 330 76"/>
    <path d="M 330 76 L 340 34 L 350 76"/>
    <path d="M 350 76 L 360 34 L 370 76"/>
    <path d="M 370 76 L 380 34 L 390 76"/>
  </g>
</svg>
